<svg width="64" height="64" viewBox="0 0 64 64" fill="none" xmlns="http://www.w3.org/2000/svg">
<path d="M46.437 60.69C40.92 63.173 36.138 64 29.609 64C14.345 64 0.919006 53.057 0.919006 35.035C0.919006 16.276 14.528 0 35.311 0C51.495 0 63.081 11.127 63.081 26.575C63.081 40 55.541 48.46 45.61 48.46C41.288 48.46 38.162 46.253 37.702 41.379H37.518C34.668 46.069 30.53 48.46 25.656 48.46C19.679 48.46 15.357 44.046 15.357 36.505C15.357 25.287 23.633 15.08 36.874 15.08C40.92 15.08 45.517 16.092 47.817 17.379L45.059 34.391C44.14 39.815 44.783 42.299 47.358 42.39C51.312 42.482 56.277 37.424 56.277 26.85C56.277 14.896 48.553 5.608 34.299 5.608C20.231 5.608 7.90801 16.643 7.90801 34.206C7.90801 49.562 17.747 58.298 31.449 58.298C36.139 58.298 41.105 57.287 44.782 55.355L46.437 60.69ZM38.253 22.713C37.517 22.529 36.597 22.345 35.402 22.345C29.334 22.345 24.551 28.322 24.551 35.402C24.551 38.896 26.115 41.103 29.149 41.103C32.551 41.103 36.138 36.781 36.965 31.448L38.253 22.713Z" fill="#8FBCBB"/>
</svg>
