<svg width="64" height="64" viewBox="0 0 64 64" fill="none" xmlns="http://www.w3.org/2000/svg">
<path fill-rule="evenodd" clip-rule="evenodd" d="M32.0003 1.00001C14.3293 1.00001 0 15.3267 0 33.0003C0 47.1388 9.16905 59.1339 21.8837 63.3652C23.483 63.6615 24.0701 62.671 24.0701 61.8258C24.0701 61.0628 24.0405 58.542 24.0267 55.8681C15.1242 57.8038 13.2457 52.0924 13.2457 52.0924C11.79 48.3937 9.69261 47.4101 9.69261 47.4101C6.78923 45.424 9.91146 45.4648 9.91146 45.4648C13.1248 45.69 14.8168 48.763 14.8168 48.763C17.6709 53.6546 22.3029 52.2403 24.129 51.4226C24.4162 49.3544 25.2455 47.9422 26.1606 47.1436C19.0529 46.3344 11.5812 43.5905 11.5812 31.3289C11.5812 27.8352 12.8313 24.9806 14.8783 22.7396C14.5461 21.9331 13.4507 18.6789 15.1883 14.2711C15.1883 14.2711 17.8755 13.411 23.9907 17.5512C26.5432 16.8422 29.2808 16.4867 32.0003 16.4745C34.7198 16.4867 37.4594 16.8422 40.0168 17.5512C46.1245 13.411 48.808 14.2711 48.808 14.2711C50.5498 18.6789 49.4539 21.9331 49.1217 22.7396C51.1735 24.9806 52.4151 27.8352 52.4151 31.3289C52.4151 43.6197 44.929 46.3259 37.8033 47.1182C38.9511 48.1112 39.9738 50.0586 39.9738 53.0442C39.9738 57.3258 39.9368 60.7718 39.9368 61.8258C39.9368 62.6774 40.5128 63.6752 42.1348 63.361C54.8426 59.1249 64 47.1341 64 33.0003C64 15.3267 49.6728 1.00001 32.0003 1.00001" fill="#8FBCBB"/>
<path d="M12.1201 46.9454C12.0497 47.1049 11.7995 47.1521 11.5717 47.0429C11.3396 46.9385 11.2092 46.7218 11.2845 46.5623C11.3533 46.3991 11.604 46.3535 11.8356 46.4621C12.0682 46.5671 12.2007 46.7859 12.1201 46.9454Z" fill="#8FBCBB"/>
<path d="M13.4163 48.391C13.2637 48.5325 12.9653 48.4668 12.7629 48.2431C12.5536 48.0201 12.5144 47.7217 12.6691 47.5781C12.8265 47.4371 13.1158 47.5034 13.3257 47.726C13.535 47.9517 13.5758 48.2479 13.4163 48.391Z" fill="#8FBCBB"/>
<path d="M14.678 50.234C14.482 50.3702 14.1614 50.2425 13.9632 49.9579C13.7671 49.6734 13.7671 49.3321 13.9674 49.1954C14.1661 49.0587 14.482 49.1821 14.6828 49.4641C14.8783 49.7534 14.8783 50.0946 14.678 50.234" fill="#8FBCBB"/>
<path d="M16.4066 52.0145C16.2312 52.2079 15.8576 52.156 15.5842 51.8921C15.3044 51.6341 15.2265 51.2679 15.4024 51.0745C15.5799 50.8805 15.9556 50.9351 16.2312 51.1969C16.5088 51.4544 16.5936 51.8232 16.4066 52.0145Z" fill="#8FBCBB"/>
<path d="M18.7911 53.0484C18.7138 53.2991 18.354 53.413 17.9915 53.3065C17.6296 53.1968 17.3927 52.9032 17.4658 52.6499C17.5411 52.3977 17.9025 52.279 18.2676 52.3929C18.629 52.5021 18.8664 52.7935 18.7911 53.0484Z" fill="#8FBCBB"/>
<path d="M21.41 53.2402C21.419 53.5041 21.1116 53.723 20.7311 53.7277C20.3486 53.7362 20.0391 53.5226 20.0349 53.263C20.0349 52.9964 20.3353 52.7797 20.7179 52.7734C21.0984 52.7659 21.41 52.9779 21.41 53.2402Z" fill="#8FBCBB"/>
<path d="M23.847 52.8253C23.8926 53.0828 23.6282 53.3473 23.2503 53.4177C22.8789 53.4856 22.535 53.3266 22.4878 53.0712C22.4417 52.8073 22.7109 52.5429 23.0818 52.4745C23.4602 52.4088 23.7988 52.5635 23.847 52.8253" fill="#8FBCBB"/>
</svg>
