<svg width="64" height="64" viewBox="0 0 64 64" fill="none" xmlns="http://www.w3.org/2000/svg">
<path d="M58.2375 22.3375C58.2375 10.1375 50.2375 6.5625 50.2375 6.5625C42.3875 2.9625 21.55 3 13.775 6.5625C13.775 6.5625 5.77501 10.1375 5.77501 22.3375C5.77501 36.8625 4.95001 54.9 19.0375 58.625C24.125 59.9625 28.4875 60.2625 32.0125 60.05C38.3875 59.7 41.975 57.775 41.975 57.775L41.7625 53.1375C41.7625 53.1375 37.2 54.5625 32.075 54.4C27 54.225 21.65 53.85 20.825 47.625C20.75 47.05 20.7125 46.4625 20.7125 45.875C31.4625 48.5 40.625 47.0125 43.15 46.7125C50.2 45.875 56.3375 41.525 57.1125 37.5625C58.3375 31.35 58.2375 22.3375 58.2375 22.3375ZM48.8 38.0625H42.95V23.725C42.95 17.4875 34.9125 17.25 34.9125 24.5875V32.4375H29.1V24.5875C29.1 17.2375 21.0625 17.4875 21.0625 23.725V38.0625H15.2C15.2 22.7375 14.55 19.5 17.5125 16.0875C20.7625 12.4625 27.5375 12.225 30.55 16.85L32 19.3L33.45 16.85C36.475 12.1875 43.2625 12.4875 46.4875 16.0875C49.475 19.5125 48.8 22.7375 48.8 38.0625Z" fill="#8FBCBB"/>
</svg>
