<svg width="196" height="189" viewBox="0 0 196 189" fill="none" xmlns="http://www.w3.org/2000/svg">
<rect x="168" y="49" width="7" height="7" fill="#17173B"/>
<rect x="14" y="49" width="7" height="7" fill="#17173B"/>
<rect x="175" y="49" width="7" height="7" fill="#17173B"/>
<rect x="21" y="49" width="7" height="7" fill="#17173B"/>
<rect x="168" y="42" width="7" height="7" fill="#17173B"/>
<rect x="14" y="42" width="7" height="7" fill="#17173B"/>
<rect x="168" y="35" width="7" height="7" fill="#FFCC93"/>
<rect x="119" y="35" width="7" height="7" fill="#FFCC93"/>
<rect x="161" y="21" width="7" height="7" fill="#DEAB6B"/>
<rect x="168" y="21" width="7" height="7" fill="#DEAB6B"/>
<rect x="175" y="21" width="7" height="7" fill="#DEAB6B"/>
<rect x="168" y="14" width="7" height="7" fill="#DEAB6B"/>
<rect x="161" y="14" width="7" height="7" fill="#DEAB6B"/>
<rect x="154" y="14" width="7" height="7" fill="#DEAB6B"/>
<rect x="147" y="14" width="7" height="7" fill="#DEAB6B"/>
<rect x="42" y="21" width="7" height="7" fill="#DEAB6B"/>
<rect x="35" y="14" width="7" height="7" fill="#DEAB6B"/>
<rect x="35" y="21" width="7" height="7" fill="#DEAB6B"/>
<rect x="35" y="28" width="7" height="7" fill="#DEAB6B"/>
<rect x="28" y="21" width="7" height="7" fill="#DEAB6B"/>
<rect x="28" y="14" width="7" height="7" fill="#DEAB6B"/>
<rect x="126" width="7" height="7" fill="#FFCC93"/>
<rect x="112" width="7" height="7" fill="#FFCC93"/>
<rect x="105" y="7" width="7" height="7" fill="#FFCC93"/>
<rect x="98" width="7" height="7" fill="#FFCC93"/>
<rect x="84" width="7" height="7" fill="#FFCC93"/>
<rect x="70" width="7" height="7" fill="#FFCC93"/>
<rect x="70" y="14" width="7" height="7" fill="#FFCC93"/>
<rect x="77" y="21" width="7" height="7" fill="#FFCC93"/>
<rect x="84" y="14" width="7" height="7" fill="#FFCC93"/>
<rect x="119" y="21" width="7" height="7" fill="#FFCC93"/>
<rect x="175" y="42" width="7" height="7" fill="#17173B"/>
<rect x="21" y="42" width="7" height="7" fill="#17173B"/>
<rect x="175" y="35" width="7" height="7" fill="#FFCC93"/>
<rect x="168" y="56" width="7" height="7" fill="#FFCC93"/>
<rect x="119" y="91" width="7" height="7" fill="#FFCC93"/>
<rect x="112" y="77" width="7" height="7" fill="#FFCC93"/>
<rect x="105" y="84" width="7" height="7" fill="#FFCC93"/>
<rect x="91" y="49" width="7" height="7" fill="#FFCC93"/>
<rect x="182" y="49" width="7" height="7" fill="#FFCC93"/>
<rect x="175" y="56" width="7" height="7" fill="#FFCC93"/>
<rect x="182" y="42" width="7" height="7" fill="#FFCC93"/>
<rect x="182" y="35" width="7" height="7" fill="#4C9457"/>
<rect x="182" y="28" width="7" height="7" fill="#4CAE50"/>
<rect x="189" y="35" width="7" height="7" fill="#4CAE50"/>
<rect x="133" y="21" width="7" height="7" fill="#4CAE50"/>
<rect x="140" y="14" width="7" height="7" fill="#4CAE50"/>
<rect x="189" y="49" width="7" height="7" fill="#4CAE50"/>
<rect x="133" y="28" width="7" height="7" fill="#4CAE50"/>
<rect x="189" y="42" width="7" height="7" fill="#4CAE50"/>
<rect x="189" y="56" width="7" height="7" fill="#4CAE50"/>
<rect x="133" y="42" width="7" height="7" fill="#4CAE50"/>
<rect x="133" y="49" width="7" height="7" fill="#4CAE50"/>
<rect x="133" y="56" width="7" height="7" fill="#4CAE50"/>
<rect x="119" y="56" width="7" height="7" fill="#4CAE50"/>
<rect x="91" y="35" width="7" height="7" fill="#4CAE50"/>
<rect x="35" y="35" width="7" height="7" fill="#4CAE50"/>
<rect x="35" y="42" width="7" height="7" fill="#4CAE50"/>
<rect x="133" y="63" width="7" height="7" fill="#4CAE50"/>
<rect x="133" y="35" width="7" height="7" fill="#4CAE50"/>
<rect x="140" y="42" width="7" height="7" fill="#384A3A"/>
<rect x="140" y="28" width="7" height="7" fill="#384A3A"/>
<rect x="140" y="21" width="7" height="7" fill="#384A3A"/>
<rect x="140" y="49" width="7" height="7" fill="#384A3A"/>
<rect x="140" y="35" width="7" height="7" fill="#384A3A"/>
<rect x="140" y="63" width="7" height="7" fill="#384A3A"/>
<rect x="140" y="56" width="7" height="7" fill="#384A3A"/>
<rect x="140" y="70" width="7" height="7" fill="#4CAE50"/>
<rect x="154" y="84" width="7" height="7" fill="#4CAE50"/>
<rect x="147" y="91" width="7" height="7" fill="#4CAE50"/>
<rect x="140" y="98" width="7" height="7" fill="#4CAE50"/>
<rect x="133" y="98" width="7" height="7" fill="#4CAE50"/>
<rect x="126" y="98" width="7" height="7" fill="#4CAE50"/>
<rect x="119" y="98" width="7" height="7" fill="#4CAE50"/>
<rect x="112" y="98" width="7" height="7" fill="#4CAE50"/>
<rect x="105" y="98" width="7" height="7" fill="#4CAE50"/>
<rect x="147" y="77" width="7" height="7" fill="#4CAE50"/>
<rect x="189" y="63" width="7" height="7" fill="#C68342"/>
<rect x="182" y="70" width="7" height="7" fill="#C68342"/>
<rect x="168" y="70" width="7" height="7" fill="#C68342"/>
<rect x="175" y="70" width="7" height="7" fill="#C68342"/>
<rect x="161" y="70" width="7" height="7" fill="#C68342"/>
<rect x="161" y="77" width="7" height="7" fill="#8B5625"/>
<rect x="42" y="77" width="7" height="7" fill="#8B5625"/>
<rect x="35" y="77" width="7" height="7" fill="#8B5625"/>
<rect x="28" y="77" width="7" height="7" fill="#8B5625"/>
<rect x="21" y="77" width="7" height="7" fill="#8B5625"/>
<rect x="15" y="77" width="7" height="7" fill="#8B5625"/>
<rect x="168" y="77" width="7" height="7" fill="#8B5625"/>
<rect x="175" y="77" width="7" height="7" fill="#8B5625"/>
<rect x="154" y="70" width="7" height="7" fill="#C68342"/>
<rect x="42" y="70" width="7" height="7" fill="#C68342"/>
<rect x="35" y="70" width="7" height="7" fill="#C68342"/>
<rect x="147" y="70" width="7" height="7" fill="#384A3A"/>
<rect x="154" y="77" width="7" height="7" fill="#384A3A"/>
<rect x="161" y="84" width="7" height="7" fill="#384A3A"/>
<rect x="154" y="91" width="7" height="7" fill="#384A3A"/>
<rect x="154" y="98" width="7" height="7" fill="#6B1111"/>
<rect x="154" y="105" width="7" height="7" fill="#A53B17"/>
<rect x="154" y="112" width="7" height="7" fill="#D66B4A"/>
<rect x="161" y="105" width="7" height="7" fill="#DEAC69"/>
<rect x="161" y="112" width="7" height="7" fill="#DEAC69"/>
<rect x="161" y="119" width="7" height="7" fill="#DEAC69"/>
<rect x="154" y="126" width="7" height="7" fill="#DEAC69"/>
<rect x="147" y="133" width="7" height="7" fill="#DEAC69"/>
<rect x="140" y="140" width="7" height="7" fill="#DEAC69"/>
<rect x="133" y="147" width="7" height="7" fill="#DEAC69"/>
<rect x="126" y="154" width="7" height="7" fill="#DEAC69"/>
<rect x="119" y="161" width="7" height="7" fill="#DEAC69"/>
<rect x="112" y="168" width="7" height="7" fill="#DEAC69"/>
<rect x="105" y="175" width="7" height="7" fill="#DEAC69"/>
<rect x="98" y="175" width="7" height="7" fill="#DEAC69"/>
<rect x="91" y="175" width="7" height="7" fill="#DEAC69"/>
<rect x="84" y="175" width="7" height="7" fill="#DEAC69"/>
<rect x="77" y="168" width="7" height="7" fill="#DEAC69"/>
<rect x="70" y="161" width="7" height="7" fill="#DEAC69"/>
<rect x="63" y="154" width="7" height="7" fill="#DEAC69"/>
<rect x="56" y="147" width="7" height="7" fill="#DEAC69"/>
<rect x="49" y="140" width="7" height="7" fill="#DEAC69"/>
<rect x="42" y="133" width="7" height="7" fill="#DEAC69"/>
<rect x="35" y="126" width="7" height="7" fill="#DEAC69"/>
<rect x="28" y="119" width="7" height="7" fill="#DEAC69"/>
<rect x="28" y="112" width="7" height="7" fill="#DEAC69"/>
<rect x="154" y="119" width="7" height="7" fill="#D66B4A"/>
<rect x="147" y="119" width="7" height="7" fill="#D66B4A"/>
<rect x="147" y="126" width="7" height="7" fill="#D66B4A"/>
<rect x="140" y="126" width="7" height="7" fill="#D66B4A"/>
<rect x="140" y="133" width="7" height="7" fill="#D66B4A"/>
<rect x="133" y="133" width="7" height="7" fill="#D66B4A"/>
<rect x="133" y="140" width="7" height="7" fill="#D66B4A"/>
<rect x="126" y="140" width="7" height="7" fill="#D66B4A"/>
<rect x="126" y="147" width="7" height="7" fill="#D66B4A"/>
<rect x="119" y="147" width="7" height="7" fill="#D66B4A"/>
<rect x="119" y="154" width="7" height="7" fill="#D66B4A"/>
<rect x="112" y="154" width="7" height="7" fill="#D66B4A"/>
<rect x="112" y="161" width="7" height="7" fill="#D66B4A"/>
<rect x="105" y="161" width="7" height="7" fill="#D66B4A"/>
<rect x="98" y="161" width="7" height="7" fill="#D66B4A"/>
<rect x="91" y="161" width="7" height="7" fill="#D66B4A"/>
<rect x="84" y="161" width="7" height="7" fill="#D66B4A"/>
<rect x="77" y="161" width="7" height="7" fill="#D66B4A"/>
<rect x="77" y="154" width="7" height="7" fill="#D66B4A"/>
<rect x="70" y="154" width="7" height="7" fill="#D66B4A"/>
<rect x="70" y="147" width="7" height="7" fill="#D66B4A"/>
<rect x="63" y="147" width="7" height="7" fill="#D66B4A"/>
<rect x="63" y="140" width="7" height="7" fill="#D66B4A"/>
<rect x="56" y="140" width="7" height="7" fill="#D66B4A"/>
<rect x="56" y="133" width="7" height="7" fill="#D66B4A"/>
<rect x="49" y="133" width="7" height="7" fill="#D66B4A"/>
<rect x="49" y="126" width="7" height="7" fill="#D66B4A"/>
<rect x="42" y="126" width="7" height="7" fill="#D66B4A"/>
<rect x="42" y="119" width="7" height="7" fill="#D66B4A"/>
<rect x="35" y="119" width="7" height="7" fill="#D66B4A"/>
<rect x="35" y="112" width="7" height="7" fill="#D66B4A"/>
<rect x="105" y="168" width="7" height="7" fill="#D66B4A"/>
<rect x="98" y="168" width="7" height="7" fill="#D66B4A"/>
<rect x="91" y="168" width="7" height="7" fill="#D66B4A"/>
<rect x="84" y="168" width="7" height="7" fill="#D66B4A"/>
<rect x="147" y="112" width="7" height="7" fill="#A53B17"/>
<rect x="140" y="119" width="7" height="7" fill="#A53B17"/>
<rect x="133" y="126" width="7" height="7" fill="#A53B17"/>
<rect x="126" y="133" width="7" height="7" fill="#A53B17"/>
<rect x="119" y="133" width="7" height="7" fill="#A53B17"/>
<rect x="70" y="133" width="7" height="7" fill="#A53B17"/>
<rect x="70" y="140" width="7" height="7" fill="#A53B17"/>
<rect x="63" y="133" width="7" height="7" fill="#A53B17"/>
<rect x="56" y="126" width="7" height="7" fill="#A53B17"/>
<rect x="49" y="119" width="7" height="7" fill="#A53B17"/>
<rect x="42" y="112" width="7" height="7" fill="#A53B17"/>
<rect x="35" y="105" width="7" height="7" fill="#A53B17"/>
<rect x="112" y="126" width="7" height="7" fill="#A53B17"/>
<rect x="98" y="126" width="7" height="7" fill="#A53B17"/>
<rect x="84" y="126" width="7" height="7" fill="#A53B17"/>
<rect x="105" y="126" width="7" height="7" fill="#A53B17"/>
<rect x="91" y="126" width="7" height="7" fill="#A53B17"/>
<rect x="77" y="126" width="7" height="7" fill="#A53B17"/>
<rect x="112" y="112" width="7" height="7" fill="#A53B17"/>
<rect x="98" y="112" width="7" height="7" fill="#A53B17"/>
<rect x="84" y="112" width="7" height="7" fill="#A53B17"/>
<rect x="105" y="112" width="7" height="7" fill="#A53B17"/>
<rect x="91" y="112" width="7" height="7" fill="#A53B17"/>
<rect x="77" y="112" width="7" height="7" fill="#A53B17"/>
<rect x="105" y="119" width="7" height="7" fill="#A53B17"/>
<rect x="91" y="119" width="7" height="7" fill="#A53B17"/>
<rect x="77" y="119" width="7" height="7" fill="#A53B17"/>
<rect x="112" y="119" width="7" height="7" fill="#A53B17"/>
<rect x="98" y="119" width="7" height="7" fill="#A53B17"/>
<rect x="84" y="119" width="7" height="7" fill="#A53B17"/>
<rect x="119" y="140" width="7" height="7" fill="#A53B17"/>
<rect x="112" y="140" width="7" height="7" fill="#ED9999"/>
<rect x="105" y="140" width="7" height="7" fill="#ED9999"/>
<rect x="105" y="133" width="7" height="7" fill="#ED9999"/>
<rect x="105" y="147" width="7" height="7" fill="#ED9999"/>
<rect x="91" y="147" width="7" height="7" fill="#ED9999"/>
<rect x="91" y="140" width="7" height="7" fill="#ED9999"/>
<rect x="91" y="133" width="7" height="7" fill="#ED9999"/>
<rect x="98" y="147" width="7" height="7" fill="#ED9999"/>
<rect x="98" y="140" width="7" height="7" fill="#ED9999"/>
<rect x="98" y="133" width="7" height="7" fill="#ED9999"/>
<rect x="91" y="154" width="7" height="7" fill="#ED9999"/>
<rect x="84" y="154" width="7" height="7" fill="#ED9999"/>
<rect x="84" y="147" width="7" height="7" fill="#ED9999"/>
<rect x="77" y="147" width="7" height="7" fill="#ED9999"/>
<rect x="77" y="133" width="7" height="7" fill="#ED9999"/>
<rect x="84" y="133" width="7" height="7" fill="#ED9999"/>
<rect x="77" y="140" width="7" height="7" fill="#ED9999"/>
<rect x="84" y="140" width="7" height="7" fill="#ED9999"/>
<rect x="112" y="133" width="7" height="7" fill="#ED9999"/>
<rect x="112" y="147" width="7" height="7" fill="#D9D9DA"/>
<rect x="105" y="154" width="7" height="7" fill="#D9D9DA"/>
<rect x="98" y="154" width="7" height="7" fill="#D9D9DA"/>
<rect x="147" y="105" width="7" height="7" fill="#6B1111"/>
<rect x="140" y="112" width="7" height="7" fill="#6B1111"/>
<rect x="133" y="112" width="7" height="7" fill="#6B1111"/>
<rect x="126" y="112" width="7" height="7" fill="#6B1111"/>
<rect x="119" y="112" width="7" height="7" fill="#6B1111"/>
<rect x="70" y="112" width="7" height="7" fill="#6B1111"/>
<rect x="63" y="112" width="7" height="7" fill="#6B1111"/>
<rect x="119" y="119" width="7" height="7" fill="#6B1111"/>
<rect x="70" y="119" width="7" height="7" fill="#6B1111"/>
<rect x="63" y="119" width="7" height="7" fill="#6B1111"/>
<rect x="56" y="119" width="7" height="7" fill="#6B1111"/>
<rect x="56" y="112" width="7" height="7" fill="#6B1111"/>
<rect x="49" y="112" width="7" height="7" fill="#6B1111"/>
<rect x="42" y="105" width="7" height="7" fill="#6B1111"/>
<rect x="35" y="98" width="7" height="7" fill="#6B1111"/>
<rect x="119" y="126" width="7" height="7" fill="#6B1111"/>
<rect x="70" y="126" width="7" height="7" fill="#6B1111"/>
<rect x="63" y="126" width="7" height="7" fill="#6B1111"/>
<rect x="126" y="126" width="7" height="7" fill="#6B1111"/>
<rect x="126" y="119" width="7" height="7" fill="#6B1111"/>
<rect x="133" y="119" width="7" height="7" fill="#6B1111"/>
<rect x="147" y="98" width="7" height="7" fill="#384A3A"/>
<rect x="140" y="105" width="7" height="7" fill="#384A3A"/>
<rect x="98" y="105" width="7" height="7" fill="#384A3A"/>
<rect x="119" y="105" width="7" height="7" fill="#384A3A"/>
<rect x="77" y="105" width="7" height="7" fill="#384A3A"/>
<rect x="133" y="105" width="7" height="7" fill="#384A3A"/>
<rect x="91" y="105" width="7" height="7" fill="#384A3A"/>
<rect x="112" y="105" width="7" height="7" fill="#384A3A"/>
<rect x="70" y="105" width="7" height="7" fill="#384A3A"/>
<rect x="126" y="105" width="7" height="7" fill="#384A3A"/>
<rect x="84" y="105" width="7" height="7" fill="#384A3A"/>
<rect x="105" y="105" width="7" height="7" fill="#384A3A"/>
<rect x="63" y="105" width="7" height="7" fill="#384A3A"/>
<rect x="56" y="105" width="7" height="7" fill="#384A3A"/>
<rect x="70" y="91" width="7" height="7" fill="#384A3A"/>
<rect x="63" y="84" width="7" height="7" fill="#384A3A"/>
<rect x="70" y="77" width="7" height="7" fill="#384A3A"/>
<rect x="63" y="70" width="7" height="7" fill="#384A3A"/>
<rect x="70" y="63" width="7" height="7" fill="#384A3A"/>
<rect x="63" y="56" width="7" height="7" fill="#384A3A"/>
<rect x="56" width="7" height="7" fill="#384A3A"/>
<rect x="56" y="14" width="7" height="7" fill="#384A3A"/>
<rect x="63" y="21" width="7" height="7" fill="#384A3A"/>
<rect x="63" y="28" width="7" height="7" fill="#384A3A"/>
<rect x="63" y="42" width="7" height="7" fill="#384A3A"/>
<rect x="56" y="42" width="7" height="7" fill="#384A3A"/>
<rect x="56" y="35" width="7" height="7" fill="#384A3A"/>
<rect x="52" y="35" width="7" height="7" fill="#384A3A"/>
<rect x="49" y="35" width="7" height="7" fill="#384A3A"/>
<rect x="49" y="42" width="7" height="7" fill="#384A3A"/>
<rect x="56" y="49" width="7" height="7" fill="#384A3A"/>
<rect x="49" y="49" width="7" height="7" fill="#384A3A"/>
<rect x="56" y="28" width="7" height="7" fill="#384A3A"/>
<rect x="49" y="28" width="7" height="7" fill="#384A3A"/>
<rect x="49" y="21" width="7" height="7" fill="#384A3A"/>
<rect x="49" y="7" width="7" height="7" fill="#384A3A"/>
<rect x="42" y="14" width="7" height="7" fill="#384A3A"/>
<rect x="56" y="56" width="7" height="7" fill="#384A3A"/>
<rect x="49" y="56" width="7" height="7" fill="#384A3A"/>
<rect x="56" y="77" width="7" height="7" fill="#384A3A"/>
<rect x="56" y="91" width="7" height="7" fill="#384A3A"/>
<rect x="49" y="91" width="7" height="7" fill="#384A3A"/>
<rect x="49" y="105" width="7" height="7" fill="#384A3A"/>
<rect x="42" y="98" width="7" height="7" fill="#384A3A"/>
<rect x="35" y="91" width="7" height="7" fill="#384A3A"/>
<rect x="35" y="84" width="7" height="7" fill="#384A3A"/>
<rect x="42" y="84" width="7" height="7" fill="#384A3A"/>
<rect x="49" y="84" width="7" height="7" fill="#384A3A"/>
<rect x="49" y="77" width="7" height="7" fill="#384A3A"/>
<rect x="49" y="70" width="7" height="7" fill="#384A3A"/>
<rect x="49" y="63" width="7" height="7" fill="#384A3A"/>
<rect x="56" y="63" width="7" height="7" fill="#384A3A"/>
<rect x="168" y="84" width="7" height="7" fill="#384A3A"/>
<rect x="168" y="91" width="7" height="7" fill="#384A3A"/>
<rect x="28" y="105" width="7" height="7" fill="#384A3A"/>
<rect x="21" y="98" width="7" height="7" fill="#384A3A"/>
<rect x="21" y="91" width="7" height="7" fill="#384A3A"/>
<rect x="28" y="91" width="7" height="7" fill="#384A3A"/>
<rect x="28" y="84" width="7" height="7" fill="#384A3A"/>
<rect x="21" y="84" width="7" height="7" fill="#384A3A"/>
<rect x="21" y="105" width="7" height="7" fill="#384A3A"/>
<rect x="21" y="112" width="7" height="7" fill="#384A3A"/>
<rect x="21" y="119" width="7" height="7" fill="#384A3A"/>
<rect x="28" y="98" width="7" height="7" fill="#384A3A"/>
<rect x="84" y="182" width="7" height="7" fill="#384A3A"/>
<rect x="77" y="175" width="7" height="7" fill="#384A3A"/>
<rect x="70" y="168" width="7" height="7" fill="#384A3A"/>
<rect x="63" y="161" width="7" height="7" fill="#384A3A"/>
<rect x="56" y="154" width="7" height="7" fill="#384A3A"/>
<rect x="49" y="147" width="7" height="7" fill="#384A3A"/>
<rect x="42" y="140" width="7" height="7" fill="#384A3A"/>
<rect x="35" y="133" width="7" height="7" fill="#384A3A"/>
<rect x="28" y="126" width="7" height="7" fill="#384A3A"/>
<rect x="147" y="63" width="7" height="7" fill="#C68342"/>
<rect x="105" y="91" width="7" height="7" fill="#C68342"/>
<rect x="91" y="91" width="7" height="7" fill="#C68342"/>
<rect x="84" y="91" width="7" height="7" fill="#C68342"/>
<rect x="77" y="91" width="7" height="7" fill="#C68342"/>
<rect x="91" y="84" width="7" height="7" fill="#C68342"/>
<rect x="84" y="77" width="7" height="7" fill="#C68342"/>
<rect x="70" y="49" width="7" height="7" fill="#C68342"/>
<rect x="42" y="56" width="7" height="7" fill="#C68342"/>
<rect x="42" y="28" width="7" height="7" fill="#C68342"/>
<rect x="14" y="21" width="7" height="7" fill="#C68342"/>
<rect y="63" width="7" height="7" fill="#C68342"/>
<rect x="7" y="70" width="7" height="7" fill="#C68342"/>
<rect x="14" y="70" width="7" height="7" fill="#C68342"/>
<rect x="21" y="70" width="7" height="7" fill="#C68342"/>
<rect x="28" y="70" width="7" height="7" fill="#C68342"/>
<rect x="7" y="35" width="7" height="7" fill="#C68342"/>
<rect x="21" y="21" width="7" height="7" fill="#C68342"/>
<rect x="42" y="35" width="7" height="7" fill="#C68342"/>
<rect x="42" y="42" width="7" height="7" fill="#C68342"/>
<rect x="42" y="49" width="7" height="7" fill="#C68342"/>
<rect x="112" y="91" width="7" height="7" fill="#C68342"/>
<rect x="98" y="91" width="7" height="7" fill="#C68342"/>
<rect x="98" y="84" width="7" height="7" fill="#C68342"/>
<rect x="147" y="56" width="7" height="7" fill="#C68342"/>
<rect x="147" y="49" width="7" height="7" fill="#C68342"/>
<rect x="147" y="42" width="7" height="7" fill="#C68342"/>
<rect x="147" y="35" width="7" height="7" fill="#C68342"/>
<rect x="147" y="28" width="7" height="7" fill="#C68342"/>
<rect x="154" y="28" width="7" height="7" fill="#C68342"/>
<rect x="154" y="21" width="7" height="7" fill="#C68342"/>
<rect x="147" y="21" width="7" height="7" fill="#C68342"/>
<rect x="119" y="7" width="7" height="7" fill="#C68342"/>
<rect x="112" y="14" width="7" height="7" fill="#C68342"/>
<rect x="98" y="14" width="7" height="7" fill="#C68342"/>
<rect x="91" y="7" width="7" height="7" fill="#C68342"/>
<rect x="77" y="7" width="7" height="7" fill="#C68342"/>
<rect x="63" y="7" width="7" height="7" fill="#C68342"/>
<rect x="91" y="21" width="7" height="7" fill="#C68342"/>
<rect x="84" y="28" width="7" height="7" fill="#C68342"/>
<rect x="70" y="35" width="7" height="7" fill="#C68342"/>
<rect x="175" y="28" width="7" height="7" fill="#4C9457"/>
<rect x="168" y="28" width="7" height="7" fill="#4C9457"/>
<rect x="161" y="28" width="7" height="7" fill="#4C9457"/>
<rect x="161" y="35" width="7" height="7" fill="#4C9457"/>
<rect x="133" y="14" width="7" height="7" fill="#4C9457"/>
<rect x="126" y="14" width="7" height="7" fill="#4C9457"/>
<rect x="119" width="7" height="7" fill="#4C9457"/>
<rect x="98" y="7" width="7" height="7" fill="#4C9457"/>
<rect x="91" y="14" width="7" height="7" fill="#4C9457"/>
<rect x="77" y="14" width="7" height="7" fill="#4C9457"/>
<rect x="70" y="21" width="7" height="7" fill="#4C9457"/>
<rect x="70" y="28" width="7" height="7" fill="#4C9457"/>
<rect x="63" y="35" width="7" height="7" fill="#4C9457"/>
<rect x="63" y="49" width="7" height="7" fill="#4C9457"/>
<rect x="35" y="49" width="7" height="7" fill="#4C9457"/>
<rect x="28" y="56" width="7" height="7" fill="#4C9457"/>
<rect x="7" y="28" width="7" height="7" fill="#4C9457"/>
<rect y="35" width="7" height="7" fill="#4C9457"/>
<rect y="42" width="7" height="7" fill="#4C9457"/>
<rect y="49" width="7" height="7" fill="#4C9457"/>
<rect y="56" width="7" height="7" fill="#4C9457"/>
<rect x="7" y="56" width="7" height="7" fill="#4C9457"/>
<rect x="7" y="63" width="7" height="7" fill="#4C9457"/>
<rect x="14" y="63" width="7" height="7" fill="#4C9457"/>
<rect x="21" y="63" width="7" height="7" fill="#4C9457"/>
<rect x="28" y="63" width="7" height="7" fill="#4C9457"/>
<rect x="14" y="28" width="7" height="7" fill="#4C9457"/>
<rect x="21" y="28" width="7" height="7" fill="#4C9457"/>
<rect x="28" y="28" width="7" height="7" fill="#4C9457"/>
<rect x="28" y="35" width="7" height="7" fill="#4C9457"/>
<rect x="35" y="56" width="7" height="7" fill="#4C9457"/>
<rect x="35" y="63" width="7" height="7" fill="#4C9457"/>
<rect x="42" y="63" width="7" height="7" fill="#4C9457"/>
<rect x="56" y="7" width="7" height="7" fill="#4C9457"/>
<rect x="49" y="14" width="7" height="7" fill="#4C9457"/>
<rect x="56" y="21" width="7" height="7" fill="#4C9457"/>
<rect x="63" y="14" width="7" height="7" fill="#4C9457"/>
<rect x="63" width="7" height="7" fill="#4C9457"/>
<rect x="70" y="7" width="7" height="7" fill="#4C9457"/>
<rect x="84" y="21" width="7" height="7" fill="#4C9457"/>
<rect x="77" y="42" width="7" height="7" fill="#4C9457"/>
<rect x="105" width="7" height="7" fill="#4C9457"/>
<rect x="91" width="7" height="7" fill="#4C9457"/>
<rect x="77" width="7" height="7" fill="#4C9457"/>
<rect x="84" y="7" width="7" height="7" fill="#4C9457"/>
<rect x="112" y="7" width="7" height="7" fill="#4C9457"/>
<rect x="119" y="14" width="7" height="7" fill="#4C9457"/>
<rect x="126" y="35" width="7" height="7" fill="#4C9457"/>
<rect x="126" y="63" width="7" height="7" fill="#4C9457"/>
<rect x="133" y="7" width="7" height="7" fill="#4C9457"/>
<rect x="126" y="7" width="7" height="7" fill="#4C9457"/>
<rect x="126" y="28" width="7" height="7" fill="#4C9457"/>
<rect x="126" y="56" width="7" height="7" fill="#4C9457"/>
<rect x="140" y="7" width="7" height="7" fill="#4C9457"/>
<rect x="133" width="7" height="7" fill="#4C9457"/>
<rect x="154" y="35" width="7" height="7" fill="#4C9457"/>
<rect x="154" y="49" width="7" height="7" fill="#4C9457"/>
<rect x="147" y="84" width="7" height="7" fill="#4C9457"/>
<rect x="140" y="77" width="7" height="7" fill="#4C9457"/>
<rect x="140" y="91" width="7" height="7" fill="#4C9457"/>
<rect x="140" y="84" width="7" height="7" fill="#4C9457"/>
<rect x="133" y="84" width="7" height="7" fill="#4C9457"/>
<rect x="133" y="70" width="7" height="7" fill="#4C9457"/>
<rect x="133" y="77" width="7" height="7" fill="#4C9457"/>
<rect x="133" y="91" width="7" height="7" fill="#4C9457"/>
<rect x="126" y="91" width="7" height="7" fill="#4C9457"/>
<rect x="98" y="98" width="7" height="7" fill="#4C9457"/>
<rect x="63" y="98" width="7" height="7" fill="#4C9457"/>
<rect x="42" y="91" width="7" height="7" fill="#4C9457"/>
<rect x="91" y="98" width="7" height="7" fill="#4C9457"/>
<rect x="56" y="98" width="7" height="7" fill="#4C9457"/>
<rect x="84" y="98" width="7" height="7" fill="#4C9457"/>
<rect x="77" y="98" width="7" height="7" fill="#4C9457"/>
<rect x="70" y="98" width="7" height="7" fill="#4C9457"/>
<rect x="49" y="98" width="7" height="7" fill="#4C9457"/>
<rect x="126" y="21" width="7" height="7" fill="#4C9457"/>
<rect x="126" y="49" width="7" height="7" fill="#4C9457"/>
<rect x="126" y="42" width="7" height="7" fill="#4C9457"/>
<rect x="126" y="70" width="7" height="7" fill="#4C9457"/>
<rect x="119" y="70" width="7" height="7" fill="#4C9457"/>
<rect x="112" y="56" width="7" height="7" fill="#4C9457"/>
<rect x="112" y="28" width="7" height="7" fill="#4C9457"/>
<rect x="119" y="63" width="7" height="7" fill="#4C9457"/>
<rect x="112" y="49" width="7" height="7" fill="#4C9457"/>
<rect x="112" y="21" width="7" height="7" fill="#4C9457"/>
<rect x="105" y="14" width="7" height="7" fill="#4C9457"/>
<rect x="119" y="49" width="7" height="7" fill="#4C9457"/>
<rect x="119" y="42" width="7" height="7" fill="#4C9457"/>
<rect x="119" y="28" width="7" height="7" fill="#4C9457"/>
<rect x="126" y="84" width="7" height="7" fill="#4C9457"/>
<rect x="112" y="84" width="7" height="7" fill="#4C9457"/>
<rect x="119" y="84" width="7" height="7" fill="#4C9457"/>
<rect x="112" y="70" width="7" height="7" fill="#4C9457"/>
<rect x="105" y="77" width="7" height="7" fill="#4C9457"/>
<rect x="98" y="77" width="7" height="7" fill="#4C9457"/>
<rect x="91" y="77" width="7" height="7" fill="#4C9457"/>
<rect x="84" y="84" width="7" height="7" fill="#4C9457"/>
<rect x="77" y="84" width="7" height="7" fill="#4C9457"/>
<rect x="70" y="84" width="7" height="7" fill="#4C9457"/>
<rect x="63" y="91" width="7" height="7" fill="#4C9457"/>
<rect x="56" y="84" width="7" height="7" fill="#4C9457"/>
<rect x="63" y="77" width="7" height="7" fill="#4C9457"/>
<rect x="56" y="70" width="7" height="7" fill="#4C9457"/>
<rect x="63" y="63" width="7" height="7" fill="#4C9457"/>
<rect x="77" y="77" width="7" height="7" fill="#4C9457"/>
<rect x="77" y="70" width="7" height="7" fill="#4C9457"/>
<rect x="70" y="56" width="7" height="7" fill="#4C9457"/>
<rect x="70" y="70" width="7" height="7" fill="#4C9457"/>
<rect x="84" y="70" width="7" height="7" fill="#4C9457"/>
<rect x="84" y="49" width="7" height="7" fill="#4C9457"/>
<rect x="77" y="49" width="7" height="7" fill="#4C9457"/>
<rect x="77" y="35" width="7" height="7" fill="#4C9457"/>
<rect x="77" y="28" width="7" height="7" fill="#4C9457"/>
<rect x="70" y="42" width="7" height="7" fill="#4C9457"/>
<rect x="77" y="56" width="7" height="7" fill="#4C9457"/>
<rect x="77" y="63" width="7" height="7" fill="#4C9457"/>
<rect x="84" y="56" width="7" height="7" fill="#4C9457"/>
<rect x="84" y="63" width="7" height="7" fill="#4C9457"/>
<rect x="91" y="56" width="7" height="7" fill="#4C9457"/>
<rect x="91" y="66" width="7" height="7" fill="#4C9457"/>
<rect x="91" y="62" width="7" height="7" fill="#4C9457"/>
<rect x="98" y="63" width="7" height="7" fill="#4C9457"/>
<rect x="105" y="63" width="7" height="7" fill="#4C9457"/>
<rect x="98" y="56" width="7" height="7" fill="#4C9457"/>
<rect x="105" y="56" width="7" height="7" fill="#4C9457"/>
<rect x="91" y="70" width="7" height="7" fill="#4C9457"/>
<rect x="98" y="70" width="7" height="7" fill="#4C9457"/>
<rect x="105" y="70" width="7" height="7" fill="#4C9457"/>
<rect x="112" y="42" width="7" height="7" fill="#4C9457"/>
<rect x="119" y="77" width="7" height="7" fill="#4C9457"/>
<rect x="112" y="63" width="7" height="7" fill="#4C9457"/>
<rect x="112" y="35" width="7" height="7" fill="#4C9457"/>
<rect x="98" y="35" width="7" height="7" fill="#4C9457"/>
<rect x="105" y="21" width="7" height="7" fill="#4C9457"/>
<rect x="98" y="21" width="7" height="7" fill="#4C9457"/>
<rect x="98" y="28" width="7" height="7" fill="#4C9457"/>
<rect x="91" y="28" width="7" height="7" fill="#4C9457"/>
<rect x="105" y="28" width="7" height="7" fill="#4C9457"/>
<rect x="105" y="35" width="7" height="7" fill="#4C9457"/>
<rect x="105" y="42" width="7" height="7" fill="#4C9457"/>
<rect x="105" y="49" width="7" height="7" fill="#4C9457"/>
<rect x="98" y="49" width="7" height="7" fill="#4C9457"/>
<rect x="98" y="42" width="7" height="7" fill="#4C9457"/>
<rect x="91" y="42" width="7" height="7" fill="#4C9457"/>
<rect x="84" y="42" width="7" height="7" fill="#4C9457"/>
<rect x="84" y="35" width="7" height="7" fill="#4C9457"/>
<rect x="126" y="77" width="7" height="7" fill="#4C9457"/>
<rect x="154" y="42" width="7" height="7" fill="#4C9457"/>
<rect x="154" y="56" width="7" height="7" fill="#4C9457"/>
<rect x="154" y="63" width="7" height="7" fill="#4C9457"/>
<rect x="161" y="63" width="7" height="7" fill="#4C9457"/>
<rect x="161" y="91" width="7" height="7" fill="#4C9457"/>
<rect x="161" y="98" width="7" height="7" fill="#4C9457"/>
<rect x="168" y="98" width="7" height="7" fill="#4C9457"/>
<rect x="168" y="105" width="7" height="7" fill="#4C9457"/>
<rect x="168" y="112" width="7" height="7" fill="#4C9457"/>
<rect x="91" y="182" width="7" height="7" fill="#4C9457"/>
<rect x="98" y="182" width="7" height="7" fill="#4C9457"/>
<rect x="105" y="182" width="7" height="7" fill="#4C9457"/>
<rect x="112" y="175" width="7" height="7" fill="#4C9457"/>
<rect x="119" y="168" width="7" height="7" fill="#4C9457"/>
<rect x="126" y="161" width="7" height="7" fill="#4C9457"/>
<rect x="133" y="154" width="7" height="7" fill="#4C9457"/>
<rect x="140" y="147" width="7" height="7" fill="#4C9457"/>
<rect x="168" y="119" width="7" height="7" fill="#4C9457"/>
<rect x="161" y="126" width="7" height="7" fill="#4C9457"/>
<rect x="154" y="133" width="7" height="7" fill="#4C9457"/>
<rect x="147" y="140" width="7" height="7" fill="#4C9457"/>
<rect x="175" y="63" width="7" height="7" fill="#4C9457"/>
<rect x="168" y="63" width="7" height="7" fill="#4C9457"/>
<rect x="182" y="63" width="7" height="7" fill="#4C9457"/>
<rect x="182" y="56" width="7" height="7" fill="#4C9457"/>
<rect x="161" y="49" width="7" height="7" fill="#FFCC93"/>
<rect x="161" y="56" width="7" height="7" fill="#C58442"/>
<rect x="161" y="42" width="7" height="7" fill="#FFCC93"/>
<rect x="28" y="42" width="7" height="7" fill="#FFCC93"/>
<rect x="20" y="35" width="7" height="7" fill="#FFCC93"/>
<rect x="21" y="35" width="7" height="7" fill="#FFCC93"/>
<rect x="14" y="35" width="7" height="7" fill="#FFCC93"/>
<rect x="7" y="42" width="7" height="7" fill="#FFCC93"/>
<rect x="7" y="49" width="7" height="7" fill="#FFCC93"/>
<rect x="28" y="49" width="7" height="7" fill="#FFCC93"/>
<rect x="21" y="56" width="7" height="7" fill="#FFCC93"/>
<rect x="14" y="56" width="7" height="7" fill="#FFCC93"/>
</svg>
