<svg width="64" height="64" viewBox="0 0 64 64" fill="none" xmlns="http://www.w3.org/2000/svg">
<path d="M64 12.1573C61.6453 13.2027 59.1147 13.9067 56.4587 14.224C59.1707 12.6 61.2533 10.0267 62.232 6.96C59.696 8.464 56.8853 9.55733 53.8933 10.1467C51.5013 7.59467 48.0853 6 44.3093 6C35.832 6 29.6027 13.9093 31.5173 22.12C20.608 21.5733 10.9333 16.3467 4.456 8.40267C1.016 14.304 2.672 22.024 8.51733 25.9333C6.368 25.864 4.34133 25.2747 2.57333 24.2907C2.42933 30.3733 6.78933 36.064 13.104 37.3307C11.256 37.832 9.232 37.9493 7.17333 37.5547C8.84267 42.7707 13.6907 46.5653 19.44 46.672C13.92 51 6.96533 52.9333 0 52.112C5.81067 55.8373 12.7147 58.0107 20.128 58.0107C44.5067 58.0107 58.28 37.4213 57.448 18.9547C60.0133 17.1013 62.24 14.7893 64 12.1573V12.1573Z" fill="#8FBCBB"/>
</svg>
